<svg id="Layer_1" data-name="Layer 1" xmlns="http://www.w3.org/2000/svg" viewBox="0 0 119 27"><defs><style>.cls-1,.cls-2,.cls-4{fill:#898989;}.cls-2{font-size:16.41px;}.cls-2,.cls-4{font-family:BellMT, Bell MT;}.cls-3{letter-spacing:0.01em;}.cls-4{font-size:5px;}.cls-5{letter-spacing:-0.06em;}.cls-6{letter-spacing:-0.01em;}.cls-7{letter-spacing:-0.07em;}</style></defs><title>phone</title><polygon class="cls-1" points="27 3.24 27 2 4 2 4 25 27 25 27 5.11 7.11 5.11 7.11 21.89 23.89 21.89 23.89 8.22 9.6 8.22 9.6 19.41 20.78 19.41 20.78 10.7 12.7 10.7 12.7 16.3 18.3 16.3 18.3 13.81 17.05 13.81 17.05 15.05 13.95 15.05 13.95 11.95 19.54 11.95 19.54 17.54 11.46 17.54 11.46 9.46 22.65 9.46 22.65 20.65 8.35 20.65 8.35 6.35 25.76 6.35 25.76 23.76 5.24 23.76 5.24 3.24 27 3.24"/><text class="cls-2" transform="translate(30.73 13.43)">gms maste<tspan class="cls-3" x="71.48" y="0">r</tspan><tspan x="78.19" y="0">s</tspan></text><text class="cls-4" transform="translate(42.03 19.7)"><tspan class="cls-5">T</tspan><tspan class="cls-6" x="3.28" y="0">o</tspan><tspan x="5.66" y="0">gethe</tspan><tspan class="cls-7" x="16.96" y="0">r</tspan><tspan x="18.62" y="0">, let’s be the future</tspan></text></svg>