<svg id="Layer_1" data-name="Layer 1" xmlns="http://www.w3.org/2000/svg" viewBox="0 0 63 27"><defs><style>.cls-1,.cls-2,.cls-3{fill:#898989;}.cls-2{font-size:10.87px;font-family:Bauhaus93, "Bauhaus 93";}.cls-3{font-size:4.74px;font-family:MyriadPro-Regular, Myriad Pro;}.cls-4{letter-spacing:-0.08em;}.cls-5{letter-spacing:0em;}.cls-6{letter-spacing:0em;}.cls-7{letter-spacing:-0.01em;}</style></defs><title>phone</title><path class="cls-1" d="M61.64,13.34c-2.46-3.63-6.09-4.62-10.19-4.46a10.69,10.69,0,0,0-7,2.73c-.56.51-1,1.14-1.57,1.67a9.39,9.39,0,0,1,4.24-5.92A9.23,9.23,0,0,1,43,1.5a11.35,11.35,0,0,0,3.12,2.82A11.11,11.11,0,0,0,52,5.89a9.87,9.87,0,0,1,9.75,7s0,0,.07,0v.34Z"/><circle class="cls-1" cx="50.26" cy="2.6" r="2.01"/><text class="cls-2" transform="translate(1.19 20.6)">PHONE 2000</text><text class="cls-3" transform="translate(1.67 25.23)"><tspan class="cls-4">Y</tspan><tspan x="2.2" y="0">our Happiness is </tspan><tspan class="cls-5" x="35.6" y="0">O</tspan><tspan class="cls-6" x="38.88" y="0">ur su</tspan><tspan class="cls-7" x="48.53" y="0">cc</tspan><tspan x="52.72" y="0">ess</tspan></text></svg>